<?xml version="1.0" encoding="UTF-8"?>
<svg width="82px" height="82px" viewBox="0 0 82 82" version="1.1" xmlns="http://www.w3.org/2000/svg" xmlns:xlink="http://www.w3.org/1999/xlink">
    <!-- Generator: Sketch 64 (93537) - https://sketch.com -->
    <title>noun_edit_1559670</title>
    <desc>Created with Sketch.</desc>
    <defs>
        <rect id="path-1" x="0" y="0" width="91" height="111"></rect>
    </defs>
    <g id="Page-1" stroke="none" stroke-width="1" fill="none" fill-rule="evenodd">
        <g id="noun_edit_1559670" transform="translate(-5.000000, -16.000000)">
            <mask id="mask-2" fill="white">
                <use xlink:href="#path-1"></use>
            </mask>
            <use id="Mask" fill-opacity="0" fill="#D8D8D8" xlink:href="#path-1"></use>
            <g mask="url(#mask-2)" id="Group">
                <g transform="translate(-4.000000, 15.000000)">
                    <g transform="translate(9.000000, 0.637820)">
                        <path d="M63.5625,0.36218 C63.3719442,0.405091409 63.1981253,0.502864541 63.0625,0.64343 L1.78125,61.92468 C1.61681292,62.0933846 1.51721049,62.3147234 1.5,62.54968 L-1.40946282e-16,81.26843 C-0.0196731123,81.5613917 0.0903886383,81.8481982 0.30099728,82.0527894 C0.511605921,82.2573807 0.801481472,82.3590847 1.09375,82.33093 L19.8125,80.86218 C20.0516309,80.8365506 20.2735179,80.7256071 20.4375,80.54968 L41.8125,59.17468 C42.1106746,58.9343995 42.2454662,58.5449514 42.1596204,58.1717579 C42.0737747,57.7985644 41.7823656,57.5071553 41.4091721,57.4213096 C41.0359786,57.3354638 40.6465305,57.4702554 40.40625,57.76843 L20.4375,77.73718 L13.25,70.54968 L62.5625,21.23718 L69.75,28.42468 L46.71875,51.45593 C46.4205754,51.6962105 46.2857838,52.0856586 46.3716296,52.4588521 C46.4574753,52.8320456 46.7488844,53.1234547 47.1220779,53.2093004 C47.4952714,53.2951462 47.8847195,53.1603546 48.125,52.86218 L81.71875,19.29968 C81.9134876,19.1112655 82.0234376,18.8518964 82.0234376,18.58093 C82.0234376,18.3099636 81.9134876,18.0505945 81.71875,17.86218 L64.46875,0.64343 C64.2332012,0.403218007 63.8926603,0.297532908 63.5625,0.36218 Z M63.75,2.76843 L79.5625,18.58093 L71.15625,27.01843 L55.34375,11.20593 L63.75,2.76843 Z M53.9375,12.61218 L61.125,19.79968 L11.8125,69.11218 L4.625,61.92468 L53.9375,12.61218 Z M3.4375,63.54968 L18.8125,78.92468 L2.09375,80.26843 L3.4375,63.54968 Z" id="Shape" fill="#000000" fill-rule="nonzero"></path>
                    </g>
                </g>
            </g>
        </g>
    </g>
</svg>