<?xml version="1.0" encoding="UTF-8"?>
<svg width="512px" height="310px" viewBox="0 0 512 310" version="1.1" xmlns="http://www.w3.org/2000/svg" xmlns:xlink="http://www.w3.org/1999/xlink">
    <!-- Generator: Sketch 64 (93537) - https://sketch.com -->
    <title>handshake</title>
    <desc>Created with Sketch.</desc>
    <g id="Page-1" stroke="none" stroke-width="1" fill="none" fill-rule="evenodd">
        <g id="handshake" fill-rule="nonzero">
            <path d="M418.258,148.103 L405.252,42.45 L380.88,45.45 L380.89,45.433 L333.64,18.842 C328.6,16.006 322.816,14.772 317.057,15.304 L242.451,22.204 C233.28,23.052 225.085,28.285 220.458,36.249 L167.874,126.757 C163.991,133.44 167.039,142.011 174.27,144.742 L176.421,145.554 C180.559,147.117 184.812,148.022 189.063,148.376 L182.4,154.179 L169.07,165.793 L131.157,198.133 C124.408,204.012 123.707,214.242 129.586,220.991 L133.432,225.396 C140.982,234.054 154.123,234.953 162.797,227.401 L177.287,244.021 C181.998,249.431 188.9,251.824 195.531,251.008 C199.516,250.518 203.404,248.866 206.651,246.026 L221.125,262.647 C225.853,268.071 232.754,270.448 239.385,269.632 C243.37,269.141 247.259,267.505 250.507,264.666 L258.373,271.464 C265.925,280.137 279.081,281.034 287.755,273.482 L298.448,264.153 L388.344,194.141 L388.441,194.052 L423.909,194.017 L418.258,148.103 Z" id="Path" fill="#F29F5C"></path>
            <path d="M379.731,166.833 L379.634,166.922 L289.738,236.934 L279.045,246.263 C270.372,253.815 257.215,252.918 249.663,244.245 L241.797,237.447 C238.549,240.286 234.659,241.923 230.675,242.413 C224.044,243.229 217.144,240.852 212.415,235.428 L197.941,218.807 C194.693,221.646 190.805,223.298 186.821,223.789 C180.19,224.605 173.288,222.213 168.577,216.802 L154.087,200.182 C146.661,206.648 135.969,206.9 128.306,201.409 C124.376,207.335 124.69,215.367 129.589,220.991 L133.435,225.396 C140.985,234.054 154.126,234.953 162.8,227.401 L177.29,244.021 C182.001,249.431 188.903,251.824 195.534,251.008 C199.519,250.518 203.406,248.866 206.654,246.026 L221.128,262.648 C225.856,268.072 232.757,270.449 239.388,269.633 C243.373,269.142 247.262,267.506 250.51,264.667 L258.376,271.465 C265.928,280.138 279.084,281.035 287.758,273.483 L298.451,264.154 L388.347,194.142 L388.444,194.053 L423.912,194.018 L419.988,162.142 L379.731,166.833 Z" id="Path" fill="#D37D42"></path>
            <path d="M396.101,212.533 L347.936,171.003 L334.542,159.463 L324.958,151.209 L283.751,115.689 L288.51,75.179 C290.12,61.478 281.495,48.651 268.199,44.972 L178.374,20.117 C168.87,17.487 158.825,21.897 154.329,30.674 L143.033,52.724 L94.545,49.433 L82.125,155.157 L76.727,201.102 L123.925,204.241 L124.023,204.33 L222.625,289.323 L233.37,298.593 C242.085,306.097 255.236,305.127 262.74,296.412 L277.12,279.726 C280.383,282.547 284.282,284.162 288.27,284.631 C294.905,285.411 301.793,282.995 306.491,277.545 L320.873,260.844 C324.136,263.665 328.033,265.296 332.021,265.764 C338.656,266.544 345.545,264.113 350.226,258.676 L364.623,241.976 C373.338,249.48 386.474,248.508 393.976,239.808 L397.798,235.381 C403.64,228.601 402.882,218.375 396.101,212.533 Z" id="Path" fill="#F9C295"></path>
            <g id="Group" transform="translate(226.000000, 199.000000)" fill="#E59F6A">
                <path d="M170.101,13.533 L155.43,0.883 C160.198,7.206 160.1,16.201 154.719,22.447 L150.662,27.146 C142.698,36.381 128.754,37.413 119.502,29.447 L104.218,47.175 C99.249,52.946 91.936,55.526 84.892,54.699 C80.659,54.202 76.522,52.471 73.058,49.476 L57.79,67.206 C52.803,72.991 45.492,75.555 38.448,74.728 C34.215,74.231 30.076,72.516 26.612,69.521 L11.346,87.235 C8.47,90.576 4.807,92.827 0.872,93.987 L7.371,99.594 C16.086,107.098 29.237,106.128 36.741,97.413 L51.121,80.727 C54.384,83.548 58.283,85.163 62.271,85.632 C68.906,86.411 75.794,83.996 80.492,78.546 L94.874,61.845 C98.137,64.666 102.034,66.297 106.022,66.765 C112.657,67.545 119.546,65.114 124.227,59.677 L138.624,42.977 C147.339,50.481 160.475,49.509 167.977,40.809 L171.799,36.382 C177.64,29.601 176.882,19.375 170.101,13.533 Z" id="Path"></path>
                <path d="M143.5,37.416 L117.108,14.66 C113.973,11.956 109.236,12.306 106.53,15.443 C103.825,18.58 104.176,23.316 107.313,26.021 L133.658,48.737 L138.624,42.977 C140.606,44.684 142.823,45.929 145.144,46.768 C146.857,43.719 146.25,39.787 143.5,37.416 Z" id="Path"></path>
                <path d="M101.303,65.627 C103.11,62.562 102.531,58.553 99.741,56.147 L76.033,35.706 C72.896,33.002 68.161,33.352 65.455,36.489 C62.75,39.626 63.101,44.362 66.238,47.067 L89.946,67.508 C89.956,67.516 89.966,67.523 89.976,67.531 L94.874,61.843 C96.827,63.532 99.011,64.785 101.303,65.627 Z" id="Path"></path>
            </g>
            <g id="Group" transform="translate(116.000000, 15.000000)" fill="#F29F5C">
                <path d="M10.385,189.135 L4.672,196.679 C-1.549,204.894 0.067,216.597 8.282,222.819 L8.282,222.819 C16.497,229.04 28.2,227.424 34.422,219.209 L40.135,211.665 C46.356,203.45 44.74,191.747 36.525,185.525 L36.525,185.525 C28.31,179.304 16.606,180.92 10.385,189.135 Z" id="Path"></path>
                <path d="M45.181,205.002 L34.422,219.209 C28.201,227.424 29.817,239.127 38.032,245.349 L38.032,245.349 C46.247,251.57 57.95,249.954 64.172,241.739 L74.931,227.532 C81.152,219.317 79.536,207.614 71.321,201.392 L71.321,201.392 C63.105,195.171 51.402,196.787 45.181,205.002 Z" id="Path"></path>
                <path d="M78.834,222.377 L64.171,241.739 C57.95,249.954 59.566,261.657 67.781,267.879 L67.781,267.879 C75.996,274.1 87.699,272.484 93.921,264.269 L108.584,244.907 C114.805,236.692 113.189,224.989 104.974,218.767 L104.974,218.767 C96.759,212.545 85.056,214.162 78.834,222.377 Z" id="Path"></path>
                <path d="M109.435,243.783 L93.921,264.268 C87.7,272.483 89.316,284.186 97.531,290.408 L97.531,290.408 C105.746,296.629 117.449,295.013 123.671,286.798 L139.185,266.313 C145.406,258.098 143.79,246.395 135.575,240.173 L135.575,240.173 C127.359,233.952 115.656,235.568 109.435,243.783 Z" id="Path"></path>
                <path d="M264.89,30.433 L217.64,3.842 C212.6,1.006 206.816,-0.228 201.057,0.304 L126.451,7.204 C117.28,8.052 109.085,13.285 104.458,21.249 L51.874,111.757 C47.991,118.441 51.039,127.011 58.27,129.742 L60.421,130.554 C79.696,137.834 101.464,131.639 114.017,115.302 L134.164,89.082 C134.164,89.082 182.593,145.155 235.913,79.672" id="Path"></path>
            </g>
            <path d="M511.945,208.145 L487.232,7.394 C486.989,5.42 485.972,3.623 484.404,2.399 C482.836,1.175 480.847,0.625 478.872,0.867 L421.084,7.981 C406.075,9.829 395.368,23.543 397.216,38.551 L417.06,199.751 C418.768,213.628 430.619,223.827 444.26,223.827 C445.372,223.827 446.499,223.759 447.63,223.62 L505.418,216.506 C509.528,215.999 512.451,212.256 511.945,208.145 Z" id="Path" fill="#18B0A5"></path>
            <path d="M511.945,208.145 L509.232,186.109 C508.002,187.914 506.038,189.204 503.7,189.492 L443.123,196.949 C441.937,197.095 440.756,197.166 439.59,197.166 C429.39,197.166 420.149,191.724 415.037,183.326 L417.059,199.75 C418.767,213.627 430.618,223.826 444.259,223.826 C445.371,223.826 446.498,223.758 447.629,223.619 L505.417,216.505 C509.528,215.999 512.451,212.256 511.945,208.145 Z" id="Path" fill="#1C877F"></path>
            <path d="M90.918,7.98 L33.13,0.866 C31.153,0.623 29.166,1.174 27.598,2.398 C26.03,3.622 25.013,5.419 24.77,7.393 L0.057,208.145 C-0.449,212.256 2.474,215.999 6.584,216.505 L64.372,223.619 C65.504,223.758 66.629,223.826 67.742,223.826 C81.382,223.826 93.234,213.626 94.942,199.75 L114.786,38.55 C116.634,23.542 105.927,9.828 90.918,7.98 Z" id="Path" fill="#FF5F61"></path>
            <path d="M0.057,208.145 L2.77,186.109 C4,187.914 5.964,189.204 8.302,189.492 L68.879,196.949 C70.065,197.095 71.246,197.166 72.412,197.166 C82.612,197.166 91.853,191.724 96.965,183.326 L94.943,199.75 C93.235,213.627 81.384,223.826 67.743,223.826 C66.631,223.826 65.504,223.758 64.373,223.619 L6.585,216.505 C2.473,215.999 -0.449,212.256 0.057,208.145 Z" id="Path" fill="#C13F41"></path>
            <g id="Group" transform="translate(32.000000, 161.000000)" fill="#EBEEF2">
                <circle id="Oval" cx="432" cy="15.001" r="14.498"></circle>
                <circle id="Oval" cx="15.19" cy="15.001" r="14.498"></circle>
            </g>
        </g>
    </g>
</svg>