<?xml version="1.0" encoding="UTF-8"?>
<svg width="5px" height="6px" viewBox="0 0 5 6" version="1.1" xmlns="http://www.w3.org/2000/svg" xmlns:xlink="http://www.w3.org/1999/xlink">
    <!-- Generator: Sketch 64 (93537) - https://sketch.com -->
    <title>noun_logout_1027055</title>
    <desc>Created with Sketch.</desc>
    <defs>
        <rect id="path-1" x="0" y="0" width="21" height="9"></rect>
    </defs>
    <g id="Page-1" stroke="none" stroke-width="1" fill="none" fill-rule="evenodd">
        <g id="noun_logout_1027055" transform="translate(-8.000000, -1.000000)">
            <mask id="mask-2" fill="white">
                <use xlink:href="#path-1"></use>
            </mask>
            <use id="Mask" fill-opacity="0" fill="#D8D8D8" xlink:href="#path-1"></use>
            <g mask="url(#mask-2)">
                <g transform="translate(7.000000, 1.000000)">
                    <g id="Group" stroke-width="1" fill-rule="evenodd" transform="translate(1.000000, 0.000000)">
                        <path d="M2.95541,1.60006 C2.9126108,1.5893631 2.8692328,1.6153868 2.858536,1.658186 C2.8478391,1.7009852 2.8738628,1.7443632 2.916662,1.75506 C3.401619,1.876572 3.813166,2.167702 4.091102,2.557186 C4.364858,2.940812 4.509055,3.420084 4.466177,3.926916 C4.4182203,4.493798 4.145031,4.987586 3.74213,5.327626 C3.339323,5.667595 2.80661,5.853886 2.23949,5.805909 C1.672608,5.7579523 1.17882,5.484763 0.83878,5.081862 C0.498811,4.679055 0.31252,4.146342 0.360497,3.579222 C0.397808,3.138191 0.571162,2.741671 0.835682,2.427472 C1.10778,2.104279 1.476351,1.867783 1.892622,1.759102 C1.9352519,1.7480587 1.9608543,1.7045429 1.949811,1.661913 C1.9387677,1.6192831 1.8952519,1.5936807 1.852622,1.604724 C1.404177,1.721803 1.007047,1.976661 0.713812,2.324968 C0.428324,2.66407 0.241281,3.091397 0.201123,3.566098 C0.1494655,4.176732 0.350355,4.750688 0.71691,5.184988 C1.083386,5.619201 1.615501,5.91361 2.22637,5.965287 C2.837004,6.0169445 3.41096,5.816055 3.84526,5.4495 C4.279473,5.083024 4.573882,4.550909 4.625559,3.94004 C4.6717086,3.394505 4.516224,2.87824 4.221106,2.46468 C3.92148,2.044802 3.477952,1.730983 2.955416,1.600058 L2.95541,1.60006 Z" id="Path" fill="#000000" fill-rule="nonzero"></path>
                        <path d="M2.49333,0.933343 C2.49333,0.8891619 2.4575111,0.853343 2.41333,0.853343 C2.3691489,0.853343 2.33333,0.8891619 2.33333,0.933343 L2.33333,2.668593 C2.33333,2.7127741 2.3691489,2.748593 2.41333,2.748593 C2.4575111,2.748593 2.49333,2.7127741 2.49333,2.668593 L2.49333,0.933343 Z" id="Path" fill="#000000" fill-rule="nonzero"></path>
                    </g>
                    <rect id="Rectangle" x="0" y="0" width="6.82666" height="6.82666"></rect>
                </g>
            </g>
        </g>
    </g>
</svg>